<?xml version="1.0" encoding="utf-8"?>
<svg xmlns="http://www.w3.org/2000/svg" viewBox="0 0 24 24">
<g opacity="0.2">
  <path fill="#FFFFFF" d="M12,22.5C6.210449,22.5,1.5,17.790039,1.5,12C1.5,6.210449,6.210449,1.5,12,1.5 c5.790039,0,10.5,4.710449,10.5,10.5C22.5,17.790039,17.790039,22.5,12,22.5z"/>
  <path d="M12,2c5.514021,0,10,4.48598,10,10s-4.485979,10-10,10S2,17.514021,2,12S6.48598,2,12,2 M12,1C5.92487,1,1,5.92487,1,12 s4.92487,11,11,11s11-4.92487,11-11S18.07513,1,12,1L12,1z"/>
  <line stroke="#000000" x1="23" y1="12" x2="12" y2="12"/>
  <line stroke="#000000" x1="6.5" y1="2.473721" x2="12" y2="12"/>
  <line stroke="#000000" x1="6.5" y1="21.526279" x2="12" y2="12"/>
</g>
<polygon stroke="#000000" stroke-linecap="round" stroke-linejoin="round" stroke-miterlimit="10" points="23,12 6.5,2.473721 6.5,21.526279 "/>
</svg>
